<?xml version="1.0" encoding="utf-8" ?><svg xmlns="http://www.w3.org/2000/svg" xmlns:xlink="http://www.w3.org/1999/xlink" width="378" height="391" viewBox="0 0 378 391"><clipPath id="cl_4"><rect x="3.8146973e-05" y="-2.2888184e-05" width="378" height="391"/></clipPath><g clip-path="url(#cl_4)"><path transform="matrix(1.62232 0 0 1.62241 -84.3605 -94.0996)" d="M55.1807 60.1423C73.6462 60.1154 93.1033 59.7474 111.471 60.1946C87.1983 83.9744 93.8139 119.179 111.672 144.846C123.603 161.992 140.145 171.492 160.801 174.864L160.838 180.198C153.652 181.182 146.659 183.265 140.105 186.372C119.651 196.051 107.432 213.448 100.006 234.132C91.934 258.178 94.2873 277.46 111.035 296.935L55.1843 296.892C54.4013 270.847 55.1561 241.178 55.1549 214.872L55.1807 60.1423Z"/><path transform="matrix(1.62232 0 0 1.62241 -84.3605 -94.0996)" d="M225.272 60.1709C230.212 59.8212 239.047 60.1095 244.217 60.1123L281.882 60.1575L281.809 296.846L227.109 296.898C231.689 291.491 233.571 289.073 236.957 282.831C239.068 278.388 241.442 271.998 241.881 267.072C245.389 227.761 219.072 186.228 178.258 180.454L178.21 174.4C186.586 173.749 196.786 169.239 203.966 164.996C235.982 146.076 257.451 88.5454 225.272 60.1709Z"/></g></svg>