<?xml version="1.0" encoding="utf-8" ?><svg xmlns="http://www.w3.org/2000/svg" xmlns:xlink="http://www.w3.org/1999/xlink" width="1267" height="399" viewBox="0 0 1267 399"><clipPath id="cl_3"><rect x="-7.6293945e-06" y="5.3405762e-05" width="1266.9999" height="399"/></clipPath><g clip-path="url(#cl_3)"><path transform="matrix(1.62228 0 0 1.62195 -84.3585 -94.0731)" d="M590.353 175.645C607.526 173.615 625.907 180.228 636.059 194.539L636.107 177.537C644.665 177.397 653.225 177.405 661.783 177.559C661.981 189.277 661.722 201.174 661.726 212.926C661.579 241.075 661.605 269.224 661.803 297.373C653.375 297.528 644.641 297.432 636.19 297.441C635.896 292.201 636.041 285.524 636.008 280.176C634.047 283.115 632.1 285.106 629.565 287.531C622.013 293.843 614.237 297.373 604.506 298.845C588.87 301.07 572.984 297.086 560.252 287.746C547.432 278.202 538.979 263.918 536.785 248.092C531.808 213.726 551.164 181.602 586.704 176.179C587.919 175.994 589.136 175.816 590.353 175.645ZM604.209 273.74C624.286 271.064 638.379 252.611 635.669 232.548C632.958 212.486 614.472 198.43 594.404 201.173C574.383 203.909 560.361 222.333 563.065 242.348C565.769 262.363 584.179 276.409 604.209 273.74Z"/><path transform="matrix(1.62228 0 0 1.62195 -84.3585 -94.0731)" d="M55.1807 60.1423C73.6462 60.1154 93.1033 59.7474 111.471 60.1946C87.1983 83.9744 93.8139 119.179 111.672 144.846C123.603 161.992 140.145 171.492 160.801 174.864L160.838 180.198C153.652 181.182 146.659 183.265 140.105 186.372C119.651 196.051 107.432 213.448 100.006 234.132C91.934 258.178 94.2873 277.46 111.035 296.935L55.1843 296.892C54.4013 270.847 55.1561 241.178 55.1549 214.872L55.1807 60.1423Z"/><path transform="matrix(1.62228 0 0 1.62195 -84.3585 -94.0731)" d="M225.272 60.1709C230.212 59.8212 239.047 60.1095 244.217 60.1123L281.882 60.1575L281.809 296.846L227.109 296.898C231.689 291.491 233.571 289.073 236.957 282.831C239.068 278.388 241.442 271.998 241.881 267.072C245.389 227.761 219.072 186.228 178.258 180.454L178.21 174.4C186.586 173.749 196.786 169.239 203.966 164.996C235.982 146.076 257.451 88.5454 225.272 60.1709Z"/><path transform="matrix(1.62228 0 0 1.62195 -84.3585 -94.0731)" d="M361.246 175.015C395.708 171.237 426.705 196.108 430.466 230.554C434.227 265 409.326 295.968 374.86 299.708C340.422 303.444 309.468 278.581 305.71 244.161C301.952 209.742 326.811 178.791 361.246 175.015ZM372.205 273.939C392.241 271.623 406.649 253.577 404.464 233.536C402.279 213.495 384.319 198.975 364.254 201.027C344.001 203.099 329.307 221.255 331.513 241.483C333.719 261.712 351.981 276.278 372.205 273.939Z"/><path transform="matrix(1.62228 0 0 1.62195 -84.3585 -94.0731)" d="M723.54 175.254C742.348 173.892 763.341 179.439 770.149 199.307C771.423 203.027 771.771 206.353 772.264 210.22C764.122 210.463 755.685 210.335 747.52 210.317C744.444 200.551 739.963 198.507 729.887 197.483C717.896 196.265 703.888 207.814 714.399 218.629C723.195 224.759 738.722 227.296 749.034 230.001C774.737 236.745 785.009 266.996 766.882 286.801C757.059 297.533 741.036 299.687 726.506 299.805C702.662 298.323 684.251 285.849 682.73 260.745C690.726 260.601 698.723 260.56 706.72 260.622C709.567 274.533 720.311 278.62 733.383 278.018C737.917 277.809 746.758 274.84 749.04 271.214C762.086 250.483 725.249 247.899 715.731 244.653C698.652 238.827 686.815 231.18 685.817 212.769C684.491 190.596 702.754 177.487 723.54 175.254Z"/><path transform="matrix(1.62228 0 0 1.62195 -84.3585 -94.0731)" d="M506.483 175.227C515.732 174.46 523.791 175.367 532.144 179.43C530.549 187.384 529.181 195.71 527.823 203.713C515.57 199.073 501.527 196.693 491.387 207.27C476.954 222.324 478.208 247.814 478.22 267.211L478.23 296.851L455.599 296.836C453.85 296.841 453.404 297.171 452.35 296.25C451.958 293.699 452.157 286.894 452.167 284.069L452.184 261.6L452.17 178.062C459.1 177.898 471.69 177.431 478.261 178.072C478.123 186.769 478.137 195.467 478.303 204.163C483.453 189.401 489.511 177.625 506.483 175.227Z"/><path transform="matrix(1.62228 0 0 1.62195 -84.3585 -94.0731)" d="M808.997 265.527C818.528 263.346 828.02 269.316 830.175 278.849C832.33 288.381 826.328 297.85 816.784 299.976C807.28 302.092 797.855 296.124 795.709 286.631C793.563 277.139 799.506 267.7 808.997 265.527Z"/></g></svg>